M48
; DRILL file {KiCad (5.1.5)-3} date 08.05.2020 12:18:49
; FORMAT={-:-/ absolute / metric / decimal}
; #@! TF.CreationDate,2020-05-08T12:18:49+03:00
; #@! TF.GenerationSoftware,Kicad,Pcbnew,(5.1.5)-3
FMAT,2
METRIC
T1C0.550
T2C0.800
T3C0.850
T4C0.900
T5C1.000
T6C0.800
%
G90
G05
T2
X60.96Y-66.04
X60.96Y-68.58
X60.96Y-71.12
X60.96Y-73.66
X60.96Y-76.2
X60.96Y-78.74
X60.96Y-81.28
X60.96Y-83.82
X60.96Y-86.36
X60.96Y-88.9
X60.96Y-91.44
X60.96Y-93.98
X60.96Y-96.52
X60.96Y-99.06
X60.96Y-101.6
X60.96Y-104.14
X68.58Y-66.04
X68.58Y-68.58
X68.58Y-71.12
X68.58Y-73.66
X68.58Y-76.2
X68.58Y-78.74
X68.58Y-81.28
X68.58Y-83.82
X68.58Y-86.36
X68.58Y-88.9
X68.58Y-91.44
X68.58Y-93.98
X68.58Y-96.52
X68.58Y-99.06
X68.58Y-101.6
X68.58Y-104.14
T4
X53.34Y-111.76
X55.88Y-111.76
X53.34Y-96.52
X55.88Y-96.52
X53.34Y-104.14
X55.88Y-104.14
X53.34Y-88.9
X55.88Y-88.9
T5
X80.01Y-93.345
X80.01Y-95.885
X52.07Y-80.01
X52.07Y-82.55
T6
X89.315Y-71.245
X89.315Y-76.245
T1
G00X91.74Y-69.87
M15
G01X92.39Y-69.87
M16
G05
G00X91.74Y-77.62
M15
G01X92.39Y-77.62
M16
G05
T3
G00X87.99Y-70.02
M15
G01X88.54Y-70.02
M16
G05
G00X87.99Y-77.47
M15
G01X88.54Y-77.47
M16
G05
T0
M30
